<?xml version="1.0" standalone="no"?>
<!DOCTYPE svg PUBLIC "-//W3C//DTD SVG 20010904//EN"
 "http://www.w3.org/TR/2001/REC-SVG-20010904/DTD/svg10.dtd">
<svg version="1.0" xmlns="http://www.w3.org/2000/svg"
 width="500.000000pt" height="500.000000pt" viewBox="0 0 500.000000 500.000000"
 preserveAspectRatio="xMidYMid meet">

<g transform="translate(0.000000,500.000000) scale(0.100000,-0.100000)"
fill="#000000" stroke="none">
<path d="M1142 3185 c-104 -19 -170 -59 -204 -125 -28 -52 -28 -53 -28 -264 0
-116 -5 -227 -10 -247 -19 -67 -87 -111 -192 -124 l-58 -7 0 -119 0 -119 38 0
c103 0 195 -59 213 -136 4 -22 9 -129 9 -239 0 -189 2 -203 24 -251 28 -60 58
-86 132 -113 52 -20 258 -46 275 -35 5 3 9 54 9 113 l0 109 -47 7 c-120 18
-133 47 -133 305 0 109 -4 201 -11 217 -23 61 -99 116 -178 129 -23 4 -41 10
-41 14 0 4 26 14 58 23 69 19 128 66 153 121 16 35 19 68 19 229 0 206 7 242
56 273 15 10 48 21 73 24 l46 5 3 113 3 112 -68 -1 c-37 0 -101 -7 -141 -14z"/>
<path d="M3652 3089 l3 -114 48 -7 c114 -16 127 -47 127 -295 0 -160 3 -194
19 -228 26 -58 81 -102 151 -122 66 -18 69 -27 13 -38 -66 -12 -137 -59 -166
-110 -8 -13 -14 -100 -17 -240 -6 -272 -11 -282 -134 -300 l-46 -7 0 -109 c0
-59 4 -110 9 -113 14 -9 213 12 269 29 29 9 68 30 88 47 66 58 68 67 74 333 5
219 7 243 26 275 28 48 88 79 168 87 l66 6 0 117 0 116 -77 12 c-96 15 -132
36 -160 92 -22 42 -23 56 -23 260 0 118 -5 232 -10 252 -29 104 -126 152 -328
165 l-103 6 3 -114z"/>
<path d="M1518 2824 c-5 -4 -8 -18 -8 -30 0 -19 8 -25 43 -34 66 -16 91 -33
104 -70 14 -40 17 -329 6 -634 -7 -228 -10 -235 -86 -243 -50 -6 -72 -27 -61
-57 5 -13 34 -16 176 -18 93 -2 178 0 189 4 23 9 26 53 3 62 -9 3 -26 6 -39 6
-38 0 -73 20 -84 49 -11 29 -20 751 -9 751 3 0 11 -12 16 -27 43 -115 372
-839 385 -847 12 -8 22 -8 35 0 10 6 90 192 192 443 96 237 177 431 180 431 7
0 2 -719 -5 -747 -6 -27 -52 -53 -93 -53 -15 0 -33 -5 -40 -12 -15 -15 -16
-45 -2 -53 6 -4 239 -6 518 -6 392 1 509 4 519 14 15 15 49 236 40 260 -4 11
-18 17 -41 17 -33 0 -35 -2 -55 -62 -49 -146 -70 -158 -273 -158 -165 0 -194
9 -192 56 1 16 87 191 202 409 212 404 259 475 316 475 15 0 36 5 47 10 20 11
26 45 9 55 -9 6 -610 10 -870 6 l-86 -1 -162 -402 c-90 -222 -166 -409 -171
-416 -5 -9 -64 112 -167 344 -99 221 -171 370 -191 394 -49 57 -118 82 -238
88 -55 2 -103 1 -107 -4z m1642 -89 c19 -23 -2 -69 -220 -472 -155 -287 -197
-357 -203 -341 -4 11 -6 184 -5 384 4 470 -11 444 254 444 132 0 164 -3 174
-15z"/>
</g>
</svg>
